<svg version="1.2" xmlns="http://www.w3.org/2000/svg" viewBox="0 0 800 800" width="800" height="800">
	<title>book-opened-svgrepo-com</title>
	<style>
		.s0 { fill: #3496e0 } 
		.s1 { fill: #fafafa } 
		.s2 { fill: #ffffff } 
		.s3 { opacity: .15;fill: #231f20 } 
		.s4 { fill: #394240 } 
	</style>
	<g>
		<g>
			<path class="s0" d="m406.4 674.2c-2.1 0.5-4.2 0.8-6.4 0.8-2.2 0-4.3-0.3-6.4-0.8l-368.6-98.3v24.4l375 99.3 375-99.3v-24.4z"/>
			<path class="s0" d="m400 725q-1.6 0-3.2-0.4l-371.8-98.4v23.8l312.9 83.4 24.9 6.7c0.9 14.3 9.8 26.4 22.3 31.8l8.5 2.2c2.1 0.6 4.2 0.9 6.4 0.9 2.2 0 4.3-0.3 6.5-0.9l8.4-2.2c12.5-5.4 21.4-17.5 22.3-31.8l24.9-6.7 312.9-83.4v-23.8l-371.8 98.4q-1.6 0.4-3.2 0.4z"/>
		</g>
		<g>
			<path fill-rule="evenodd" class="s1" d="m25 25v525l362.5 96.7v-525l-362.5-96.7z"/>
			<path fill-rule="evenodd" class="s2" d="m412.5 121.7v525l362.5-96.7v-525z"/>
		</g>
		<path fill-rule="evenodd" class="s3" d="m412.5 121.7v525l362.5-96.7v-525z"/>
		<g>
			<path class="s4" d="m112.4 372.8l180.8 51.7q1.8 0.5 3.5 0.5c5.4 0 10.4-3.6 12-9.1 1.9-6.6-2-13.5-8.6-15.4l-180.8-51.7c-6.6-1.8-13.6 1.9-15.5 8.6-1.9 6.6 2 13.5 8.6 15.4z"/>
			<path class="s4" d="m112.4 460.4l180.8 51.6q1.8 0.5 3.5 0.5c5.4 0 10.4-3.6 12-9.1 1.9-6.6-2-13.5-8.6-15.4l-180.8-51.7c-6.6-1.8-13.6 2-15.5 8.6-1.9 6.7 2 13.6 8.6 15.5z"/>
			<path class="s4" d="m112.4 285.3l180.8 51.7q1.8 0.5 3.5 0.5c5.4 0 10.4-3.6 12-9.1 1.9-6.6-2-13.5-8.6-15.4l-180.8-51.7c-6.6-1.8-13.6 1.9-15.5 8.6-1.9 6.6 2 13.5 8.6 15.4z"/>
			<path class="s4" d="m112.4 197.8l180.8 51.7q1.8 0.5 3.5 0.5c5.4 0 10.4-3.6 12-9.1 1.9-6.6-2-13.5-8.6-15.4l-180.8-51.7c-6.6-1.8-13.6 1.9-15.5 8.6-1.9 6.6 2 13.5 8.6 15.4z"/>
			<path class="s4" d="m499.5 424.5q1.8 0 3.5-0.4l180.8-51.7c6.6-1.9 10.5-8.8 8.6-15.5-1.9-6.6-8.8-10.4-15.4-8.6l-180.9 51.7c-6.6 1.9-10.5 8.8-8.6 15.4 1.6 5.6 6.6 9.1 12 9.1z"/>
			<path class="s4" d="m680.7 436.3l-180.8 51.7c-6.6 1.9-10.5 8.8-8.6 15.4 1.6 5.5 6.6 9.1 12 9.1q1.8 0 3.5-0.5l180.8-51.6c6.6-1.9 10.5-8.9 8.6-15.5-1.9-6.6-8.9-10.4-15.5-8.6z"/>
			<path class="s4" d="m503.3 337.5q1.8 0 3.5-0.5l180.8-51.7c6.6-1.9 10.5-8.8 8.6-15.4-1.9-6.6-8.8-10.4-15.5-8.6l-180.8 51.7c-6.6 1.9-10.5 8.8-8.6 15.4 1.6 5.5 6.6 9.1 12 9.1z"/>
			<path class="s4" d="m503.3 250q1.8 0 3.5-0.5l180.8-51.7c6.6-1.9 10.5-8.8 8.6-15.4-1.9-6.7-8.8-10.4-15.5-8.6l-180.8 51.7c-6.6 1.9-10.5 8.8-8.6 15.4 1.6 5.5 6.6 9.1 12 9.1z"/>
			<path class="s4" d="m790.2 5.2c-4.4-3.4-9.8-5.2-15.2-5.2q-3.3 0-6.4 0.8l-368.6 98.3-368.6-98.3q-3.2-0.8-6.4-0.8c-5.5 0-10.8 1.8-15.2 5.2-6.2 4.7-9.8 12-9.8 19.8v625c0 11.3 7.6 21.2 18.5 24.1l323.5 86.3c9.1 23.2 31.6 39.6 58 39.6 26.4 0 48.9-16.4 58-39.6l323.5-86.3c10.9-2.9 18.5-12.8 18.5-24.1v-625c0-7.8-3.6-15.1-9.8-19.8zm-765.2 19.8l362.5 96.7v525l-362.5-96.7v-525q0 0 0 0zm750 625l-312.9 83.4-24.9 6.7c-0.9 14.2-9.8 26.4-22.3 31.8l-8.4 2.2c-2.2 0.6-4.3 0.9-6.5 0.9-2.2 0-4.3-0.3-6.4-0.9l-8.5-2.2c-12.5-5.4-21.4-17.6-22.3-31.8l-24.9-6.7-312.9-83.4v-23.8l371.8 98.4q1.6 0.4 3.2 0.4 1.6 0 3.2-0.4l371.8-98.4zm0-49.7l-375 99.2-375-99.2v-24.5l368.5 98.3c2.2 0.6 4.3 0.9 6.5 0.9 2.2 0 4.3-0.3 6.4-0.9l368.6-98.3zm0-50.3l-362.5 96.7v-525l362.5-96.7z"/>
		</g>
	</g>
</svg>