<svg version="1.2" xmlns="http://www.w3.org/2000/svg" viewBox="0 0 800 800" width="800" height="800">
	<title>brush-svgrepo-com</title>
	<style>
		.s0 { fill: #626262 } 
		.s1 { fill: #feea8b } 
		.s2 { fill: #e99f4b } 
		.s3 { fill: #3496e0 } 
		.s4 { fill: #394240 } 
	</style>
	<g>
		<path fill-rule="evenodd" class="s0" d="m597.2 114.3l88.6 88.5-17.7 17.8-88.6-88.6z"/>
		<g>
			<path class="s1" d="m268.8 442.6c32.4 13.8 53.4 34.3 53.9 34.7 0.4 0.5 21 21.5 34.7 53.9l292.9-293-88.5-88.5z"/>
			<path class="s2" d="m756.6 43.4c-24.5-24.5-64.1-24.5-88.6 0l-53.1 53.1 88.6 88.6 53.1-53.1c24.5-24.5 24.5-64.1 0-88.6z"/>
		</g>
		<path class="s3" d="m304.9 672.2c-52.6 52.6-101.3 58.6-157.7 65.5-34.6 4.3-70 8.6-108.7 23.8 15.2-38.7 19.6-74.1 23.8-108.7 6.9-56.4 12.9-105.1 65.5-157.7 87.2-87.3 173.5-3.6 177.1-0.1 3.6 3.7 87.3 90 0.1 177.2z"/>
		<g>
			<path class="s4" d="m774.3 25.7c-34.2-34.2-89.7-34.2-124 0l-408.2 408.2c-37.9-8.6-85.1-3.4-132 43.5-58.8 58.7-65.5 113.9-72.7 172.4-5.1 41.5-10.3 84.4-35.7 131.6-2.6 4.9-1.8 10.9 2.2 14.8 3.9 3.9 9.9 4.8 14.7 2.2 47.3-25.5 90.2-30.7 131.6-35.8 58.5-7.2 113.7-13.9 172.5-72.7 46.9-46.9 52-94 43.4-132l408.2-408.2c34.3-34.3 34.3-89.8 0-124zm-469.3 646.5c-52.7 52.6-101.4 58.6-157.8 65.5-34.6 4.3-70 8.6-108.7 23.8 15.2-38.7 19.6-74.1 23.8-108.7 6.9-56.4 12.9-105.1 65.5-157.7 87.2-87.3 173.5-3.6 177.1-0.1 3.6 3.7 87.3 90 0.1 177.2zm52.4-141c-13.8-32.4-34.3-53.4-34.7-53.9-0.5-0.4-21.5-20.9-53.9-34.7l293-292.9 88.5 88.5zm310.7-310.6l-88.6-88.6 17.8-17.7 88.5 88.5zm35.4-35.4l-88.5-88.5 53.1-53.2c24.5-24.4 64.1-24.4 88.6 0 24.4 24.5 24.4 64.1 0 88.6z"/>
			<path class="s4" d="m269.5 512.8c-4.9 4.9-4.9 12.8 0 17.7 29.4 29.3 29.4 76.9 0 106.3-4.9 4.9-4.9 12.8 0 17.7 4.9 4.9 12.8 4.9 17.7 0 39.2-39.2 39.2-102.6 0-141.7-4.9-4.9-12.8-4.9-17.7 0z"/>
		</g>
	</g>
</svg>