<svg version="1.2" xmlns="http://www.w3.org/2000/svg" viewBox="0 0 800 800" width="800" height="800">
	<title>box-svgrepo-com</title>
	<style>
		.s0 { fill: #e8f4fe } 
		.s1 { fill: #ffd101 } 
		.s2 { fill: #3496e0 } 
		.s3 { fill: #394240 } 
		.s4 { fill: #00044a } 
	</style>
	<g>
		<path fill-rule="evenodd" class="s0" d="m725 632.3l-142.7 142.7h-364.6l-142.7-142.7v-432.3h650z"/>
		<g>
			<path class="s1" d="m75 750c0 13.8 11.2 25 25 25h82.3l-107.3-107.4z"/>
			<path class="s1" d="m617.7 775h82.3c13.8 0 25-11.2 25-25v-82.4z"/>
		</g>
		<path class="s2" d="m775 150c0 13.8-11.2 25-25 25h-700c-13.8 0-25-11.2-25-25v-100c0-13.8 11.2-25 25-25h700c13.8 0 25 11.2 25 25z"/>
		<path class="s3" d="m750 0h-700c-27.6 0-50 22.3-50 50v100c0 27.6 22.4 50 50 50v550c0 27.6 22.4 50 50 50h600c27.6 0 50-22.4 50-50v-550c27.6 0 50-22.4 50-50v-100c0-27.7-22.4-50-50-50zm-25 632.3l-142.7 142.7h-364.6l-142.7-142.7v-432.3h650zm-650 117.6v-82.3l107.3 107.3h-82.3c-13.8 0-25-11.1-25-25zm625 25h-82.3l107.3-107.3v82.3c0 13.9-11.2 25-25 25zm75-625c0 13.8-11.2 25-25 25h-700c-13.8 0-25-11.2-25-25v-100c0-13.8 11.2-25 25-25h700c13.8 0 25 11.2 25 25z"/>
		<path class="s3" d="m262.5 400h275c20.7 0 37.5-16.8 37.5-37.5 0-20.7-16.8-37.5-37.5-37.5h-275c-20.7 0-37.5 16.8-37.5 37.5 0 20.7 16.8 37.5 37.5 37.5zm0-50h275c6.9 0 12.5 5.6 12.5 12.5 0 6.9-5.6 12.5-12.5 12.5h-275c-6.9 0-12.5-5.6-12.5-12.5 0-6.9 5.6-12.5 12.5-12.5z"/>
		<path class="s4" d="m262.5 350h275c6.9 0 12.5 5.6 12.5 12.5 0 6.9-5.6 12.5-12.5 12.5h-275c-6.9 0-12.5-5.6-12.5-12.5 0-6.9 5.6-12.5 12.5-12.5z"/>
	</g>
</svg>